<svg xmlns="http://www.w3.org/2000/svg" width="125" height="16" fill="none"><g clip-path="url(#a)"><path fill="#F035DD" d="M8.45 7.46 6.67 1.92 7.9.5l1.72 5.33H15l-.77 1.63h-5.8.02Z"/><path fill="#F035DD" d="M.01 5.82h6.96L4.8 12.48l5.53-4.22 2.33 6.23-1.31 1.01-1.73-4.63-6.04 4.35-.97-.73 2.23-7.03H.78L.01 5.82Z"/><path fill="#fff" d="M27.91 5.99c0 2.23-1.6 3.44-3.57 3.44h-1.26l4.83 4.81v.25h-2.3l-5.04-5.1h-.17v5.1h-2.02V2.52h5.73c2.11 0 3.8 1.22 3.8 3.47ZM23.8 7.85c1.25 0 2.12-.61 2.12-1.82 0-1.2-.87-1.82-2.12-1.82h-3.4v3.64h3.4Zm8.98-2.15c2.58 0 4.08 1.57 4.08 4.15v.88h-6.5c.04 1.44.93 2.45 2.41 2.45s2.05-.77 2.19-1.42h1.72v.25c-.23 1.12-1.26 2.68-3.88 2.68-2.63 0-4.32-1.54-4.32-4.5 0-2.95 1.7-4.48 4.3-4.48V5.7ZM35 9.28c-.02-1.17-.77-2.07-2.26-2.07-1.48 0-2.25.92-2.35 2.07H35Zm4.47-3.38 2.32 6.48h.13l2.33-6.47h1.98v.25l-3.27 8.33H40.7l-3.27-8.33V5.9h2.04Zm11.55-.2c2.58 0 4.08 1.57 4.08 4.15v.88h-6.5c.04 1.44.93 2.45 2.4 2.45 1.49 0 2.06-.77 2.2-1.42h1.72v.25c-.23 1.12-1.26 2.68-3.89 2.68-2.62 0-4.31-1.54-4.31-4.5 0-2.95 1.7-4.48 4.3-4.48V5.7Zm2.22 3.57C53.23 8.1 52.48 7.2 51 7.2c-1.48 0-2.25.92-2.36 2.07h4.61-.01ZM58.6 5.9v1h.13c.31-.63.87-1.03 2.05-1.03h1.2V7.5h-1.2c-1.46 0-2.1.77-2.1 2.4v4.59h-1.97V5.9h1.89Zm6.56-3.38v4.32h.13c.63-.8 1.58-1.12 2.7-1.12 2.18 0 3.93 1.46 3.93 4.47s-1.75 4.48-3.93 4.48c-1.15 0-2.12-.32-2.75-1.18h-.14v1h-1.9V2.52h1.96Zm2.35 10.6c1.45 0 2.42-1.04 2.42-2.93 0-1.88-.97-2.91-2.42-2.91-1.46 0-2.43 1.04-2.43 2.91 0 1.88.97 2.93 2.43 2.93Zm8.41-10.6 5.57 8.93h.13V2.52h1.95V14.5h-2.31l-5.57-8.93h-.13v8.93H73.6V2.52h2.32ZM89.54 5.7c2.3 0 3.67 1.03 3.67 3.28v5.5H91.4v-1.02h-.14c-.32.58-1.11 1.2-2.81 1.2-1.9 0-3.22-.96-3.22-2.6 0-1.72 1.32-2.5 3.04-2.7l3.06-.4v-.2c0-1.12-.6-1.58-1.82-1.58-1.21 0-1.91.46-2 1.4h-1.84v-.25c.18-1.6 1.57-2.63 3.87-2.63Zm-.71 7.45c1.4 0 2.5-.74 2.5-2.33v-.43l-2.64.35c-.91.13-1.5.47-1.5 1.21s.62 1.2 1.64 1.2ZM96 5.9V3.64h1.97V5.9h2.43v1.52h-2.43v5.3l.14.13h2.25v1.63h-1.99c-1.48 0-2.37-.77-2.37-2.23V7.42h-1.9V5.9H96Zm6.1-3.09h2.11v1.81h-2.1v-1.8l-.01-.01Zm2.05 3.1v8.58h-1.97V5.9h1.96l.01.01Zm6.07-.21c2.66 0 4.53 1.57 4.53 4.5 0 2.92-1.87 4.49-4.53 4.49-2.67 0-4.52-1.57-4.52-4.5 0-2.93 1.86-4.48 4.52-4.48V5.7Zm0 7.44c1.53 0 2.53-1.03 2.53-2.95 0-1.92-1-2.94-2.53-2.94-1.53 0-2.53 1.03-2.53 2.94s1 2.95 2.53 2.95Zm7.97-7.24v.95h.13c.6-.8 1.55-1.13 2.71-1.13 2.03 0 3.27 1.04 3.27 3.15v5.62h-1.97V9.04c0-1.18-.64-1.74-1.8-1.74-1.27 0-2.28.72-2.28 2.39v4.8h-1.96V5.9h1.9Z"/></g><defs><clipPath id="a"><path fill="#fff" d="M0 0h125v16H0z"/></clipPath></defs></svg>